# xmcd
#
# Track frame offsets:
#	150
#	17493
#	32748
#	54477
#	74063
#	85778
#	106971
#	125791
#	141717
#	162319
#	175204
#
# Disc length: 2541 seconds
#
# Revision: 1
# Processed by: cddbd v1.5.2PL0 Copyright (c) Steve Scherf et al.
# Submitted via: audiograbber 1.83.01
#
DISCID=9e09eb0b
DTITLE=Have Mercy Reunion - Let us get together
DYEAR=2016
DGENRE=Blues
TTITLE0=Cornbread,peas and black molasses
TTITLE1=Hair parted in the middle
TTITLE2=Don´t you leave me here
TTITLE3=Mud´s boogie
TTITLE4=Ripley´s blues
TTITLE5=Down to the river
TTITLE6=Going to Germany
TTITLE7=Rock Island line
TTITLE8=Easy rider
TTITLE9=Harmonica stomp
TTITLE10=Let us get together
EXTD=
EXTT0=
EXTT1=
EXTT2=
EXTT3=
EXTT4=
EXTT5=
EXTT6=
EXTT7=
EXTT8=
EXTT9=
EXTT10=
PLAYORDER=
